# xmcd
#
# Track frame offsets: 
#        150
#        18060
#        31944
#        49631
#        66461
#        82316
#        102539
#        118301
#        133314
#        149078
#        167603
#
# Disc length: 2445 seconds
#
# Revision: 0
# Processed by: cddbd v1.5.2PL0 Copyright (c) Steve Scherf et al.
# Submitted via: ExactAudioCopy v1.2
#
DISCID=a6098b0b
DTITLE=Jair Luz and Fernanda Noronha - Nossas Cancoes
DYEAR=1900
DGENRE=Country
TTITLE0=Em cima do mundo
TTITLE1=Meus planos
TTITLE2=Labirinto
TTITLE3=Calma
TTITLE4=Pro meu amor notar
TTITLE5=Musica pra dancar
TTITLE6=Nunca é demais
TTITLE7=Desaparecerei
TTITLE8=Forever
TTITLE9=Agora
TTITLE10=Semimusa
EXTD=
EXTT0=
EXTT1=
EXTT2=
EXTT3=
EXTT4=
EXTT5=
EXTT6=
EXTT7=
EXTT8=
EXTT9=
EXTT10=
PLAYORDER=
